<?xml version="1.0" encoding="UTF-8" standalone="no"?>
<!DOCTYPE svg PUBLIC "-//W3C//DTD SVG 1.1//EN"
 "http://www.w3.org/Graphics/SVG/1.1/DTD/svg11.dtd">
<!-- Generated by graphviz version 3.0.0 (20220226.1711)
 -->
<!-- Title: dependencies Pages: 1 -->
<svg width="567pt" height="247pt"
 viewBox="0.00 0.00 567.00 246.80" xmlns="http://www.w3.org/2000/svg" xmlns:xlink="http://www.w3.org/1999/xlink">
<g id="graph0" class="graph" transform="scale(1 1) rotate(0) translate(4 242.8)">
<title>dependencies</title>
<polygon fill="white" stroke="transparent" points="-4,4 -4,-242.8 563,-242.8 563,4 -4,4"/>
<text text-anchor="middle" x="279.5" y="-8.2" font-family="sans-serif" font-size="14.00">dependencies</text>
<g id="clust1" class="cluster">
<title>cluster_SharedModule</title>
<polygon fill="none" stroke="black" stroke-dasharray="1,5" points="8,-32.8 8,-230.8 551,-230.8 551,-32.8 8,-32.8"/>
</g>
<g id="clust2" class="cluster">
<title>cluster_SharedModule_declarations</title>
<polygon fill="none" stroke="black" points="126,-40.8 126,-92.8 543,-92.8 543,-40.8 126,-40.8"/>
</g>
<g id="clust7" class="cluster">
<title>cluster_SharedModule_exports</title>
<polygon fill="none" stroke="black" points="65,-170.8 65,-222.8 493,-222.8 493,-170.8 65,-170.8"/>
</g>
<g id="clust6" class="cluster">
<title>cluster_SharedModule_imports</title>
<polygon fill="none" stroke="black" points="16,-40.8 16,-92.8 118,-92.8 118,-40.8 16,-40.8"/>
</g>
<!-- AlertToastDirective -->
<g id="node1" class="node">
<title>AlertToastDirective</title>
<polygon fill="#ffffb3" stroke="black" points="534.95,-84.8 407.05,-84.8 407.05,-48.8 534.95,-48.8 534.95,-84.8"/>
<text text-anchor="middle" x="471" y="-62.6" font-family="Times,serif" font-size="14.00">AlertToastDirective</text>
</g>
<!-- SharedModule -->
<g id="node4" class="node">
<title>SharedModule</title>
<polygon fill="#8dd3c7" stroke="black" points="320.43,-149.8 317.43,-153.8 296.43,-153.8 293.43,-149.8 221.57,-149.8 221.57,-113.8 320.43,-113.8 320.43,-149.8"/>
<text text-anchor="middle" x="271" y="-127.6" font-family="Times,serif" font-size="14.00">SharedModule</text>
</g>
<!-- AlertToastDirective&#45;&gt;SharedModule -->
<g id="edge1" class="edge">
<title>AlertToastDirective&#45;&gt;SharedModule</title>
<path fill="none" stroke="black" d="M445.88,-84.82C445.88,-102.17 445.88,-125.8 445.88,-125.8 445.88,-125.8 330.64,-125.8 330.64,-125.8"/>
<polygon fill="black" stroke="black" points="330.64,-122.3 320.64,-125.8 330.64,-129.3 330.64,-122.3"/>
</g>
<!-- SpinnerComponent -->
<g id="node2" class="node">
<title>SpinnerComponent</title>
<polygon fill="#ffffb3" stroke="black" points="389.38,-84.8 264.62,-84.8 264.62,-48.8 389.38,-48.8 389.38,-84.8"/>
<text text-anchor="middle" x="327" y="-62.6" font-family="Times,serif" font-size="14.00">SpinnerComponent</text>
</g>
<!-- SpinnerComponent&#45;&gt;SharedModule -->
<g id="edge2" class="edge">
<title>SpinnerComponent&#45;&gt;SharedModule</title>
<path fill="none" stroke="black" d="M292.39,-84.91C292.39,-84.91 292.39,-103.79 292.39,-103.79"/>
<polygon fill="black" stroke="black" points="288.89,-103.79 292.39,-113.79 295.89,-103.79 288.89,-103.79"/>
</g>
<!-- ToastComponent -->
<g id="node3" class="node">
<title>ToastComponent</title>
<polygon fill="#ffffb3" stroke="black" points="246.44,-84.8 133.56,-84.8 133.56,-48.8 246.44,-48.8 246.44,-84.8"/>
<text text-anchor="middle" x="190" y="-62.6" font-family="Times,serif" font-size="14.00">ToastComponent</text>
</g>
<!-- ToastComponent&#45;&gt;SharedModule -->
<g id="edge3" class="edge">
<title>ToastComponent&#45;&gt;SharedModule</title>
<path fill="none" stroke="black" d="M234,-84.91C234,-84.91 234,-103.79 234,-103.79"/>
<polygon fill="black" stroke="black" points="230.5,-103.79 234,-113.79 237.5,-103.79 230.5,-103.79"/>
</g>
<!-- AlertToastDirective  -->
<g id="node6" class="node">
<title>AlertToastDirective </title>
<polygon fill="#fb8072" stroke="black" points="484.95,-214.8 353.05,-214.8 353.05,-178.8 484.95,-178.8 484.95,-214.8"/>
<text text-anchor="middle" x="419" y="-192.6" font-family="Times,serif" font-size="14.00">AlertToastDirective </text>
</g>
<!-- SharedModule&#45;&gt;AlertToastDirective  -->
<g id="edge5" class="edge">
<title>SharedModule&#45;&gt;AlertToastDirective </title>
<path fill="none" stroke="black" stroke-dasharray="5,2" d="M320.3,-137.8C345.68,-137.8 371.36,-137.8 371.36,-137.8 371.36,-137.8 371.36,-168.78 371.36,-168.78"/>
<polygon fill="black" stroke="black" points="367.86,-168.78 371.36,-178.78 374.86,-168.78 367.86,-168.78"/>
</g>
<!-- SpinnerComponent  -->
<g id="node7" class="node">
<title>SpinnerComponent </title>
<polygon fill="#fb8072" stroke="black" points="335.38,-214.8 206.62,-214.8 206.62,-178.8 335.38,-178.8 335.38,-214.8"/>
<text text-anchor="middle" x="271" y="-192.6" font-family="Times,serif" font-size="14.00">SpinnerComponent </text>
</g>
<!-- SharedModule&#45;&gt;SpinnerComponent  -->
<g id="edge6" class="edge">
<title>SharedModule&#45;&gt;SpinnerComponent </title>
<path fill="none" stroke="black" stroke-dasharray="5,2" d="M271,-149.91C271,-149.91 271,-168.79 271,-168.79"/>
<polygon fill="black" stroke="black" points="267.5,-168.79 271,-178.79 274.5,-168.79 267.5,-168.79"/>
</g>
<!-- ToastComponent  -->
<g id="node8" class="node">
<title>ToastComponent </title>
<polygon fill="#fb8072" stroke="black" points="188.93,-214.8 73.07,-214.8 73.07,-178.8 188.93,-178.8 188.93,-214.8"/>
<text text-anchor="middle" x="131" y="-192.6" font-family="Times,serif" font-size="14.00">ToastComponent </text>
</g>
<!-- SharedModule&#45;&gt;ToastComponent  -->
<g id="edge7" class="edge">
<title>SharedModule&#45;&gt;ToastComponent </title>
<path fill="none" stroke="black" stroke-dasharray="5,2" d="M221.64,-137.8C192.54,-137.8 161.38,-137.8 161.38,-137.8 161.38,-137.8 161.38,-168.78 161.38,-168.78"/>
<polygon fill="black" stroke="black" points="157.88,-168.78 161.38,-178.78 164.88,-168.78 157.88,-168.78"/>
</g>
<!-- CoreModule -->
<g id="node5" class="node">
<title>CoreModule</title>
<polygon fill="#8dd3c7" stroke="black" points="110.27,-84.8 107.27,-88.8 86.27,-88.8 83.27,-84.8 23.73,-84.8 23.73,-48.8 110.27,-48.8 110.27,-84.8"/>
<text text-anchor="middle" x="67" y="-62.6" font-family="Times,serif" font-size="14.00">CoreModule</text>
</g>
<!-- CoreModule&#45;&gt;SharedModule -->
<g id="edge4" class="edge">
<title>CoreModule&#45;&gt;SharedModule</title>
<path fill="none" stroke="black" d="M91.71,-84.82C91.71,-102.17 91.71,-125.8 91.71,-125.8 91.71,-125.8 211.53,-125.8 211.53,-125.8"/>
<polygon fill="black" stroke="black" points="211.53,-129.3 221.53,-125.8 211.53,-122.3 211.53,-129.3"/>
</g>
</g>
</svg>
