<?xml version="1.0" encoding="UTF-8" standalone="no"?>
<!DOCTYPE svg PUBLIC "-//W3C//DTD SVG 1.1//EN"
 "http://www.w3.org/Graphics/SVG/1.1/DTD/svg11.dtd">
<!-- Generated by graphviz version 3.0.0 (20220226.1711)
 -->
<!-- Title: dependencies Pages: 1 -->
<svg width="1156pt" height="247pt"
 viewBox="0.00 0.00 1156.00 246.80" xmlns="http://www.w3.org/2000/svg" xmlns:xlink="http://www.w3.org/1999/xlink">
<g id="graph0" class="graph" transform="scale(1 1) rotate(0) translate(4 242.8)">
<title>dependencies</title>
<polygon fill="white" stroke="transparent" points="-4,4 -4,-242.8 1152,-242.8 1152,4 -4,4"/>
<text text-anchor="middle" x="574" y="-8.2" font-family="sans-serif" font-size="14.00">dependencies</text>
<g id="clust1" class="cluster">
<title>cluster_AppModule</title>
<polygon fill="none" stroke="black" stroke-dasharray="1,5" points="8,-32.8 8,-230.8 1140,-230.8 1140,-32.8 8,-32.8"/>
</g>
<g id="clust2" class="cluster">
<title>cluster_AppModule_declarations</title>
<polygon fill="none" stroke="black" points="513,-40.8 513,-92.8 1132,-92.8 1132,-40.8 513,-40.8"/>
</g>
<g id="clust10" class="cluster">
<title>cluster_AppModule_providers</title>
<polygon fill="none" stroke="black" points="285,-40.8 285,-92.8 505,-92.8 505,-40.8 285,-40.8"/>
</g>
<g id="clust7" class="cluster">
<title>cluster_AppModule_imports</title>
<polygon fill="none" stroke="black" points="16,-40.8 16,-92.8 277,-92.8 277,-40.8 16,-40.8"/>
</g>
<g id="clust9" class="cluster">
<title>cluster_AppModule_bootstrap</title>
<polygon fill="none" stroke="black" points="532,-170.8 532,-222.8 656,-222.8 656,-170.8 532,-170.8"/>
</g>
<!-- AppComponent -->
<g id="node1" class="node">
<title>AppComponent</title>
<polygon fill="#ffffb3" stroke="black" points="1123.94,-84.8 1018.06,-84.8 1018.06,-48.8 1123.94,-48.8 1123.94,-84.8"/>
<text text-anchor="middle" x="1071" y="-62.6" font-family="Times,serif" font-size="14.00">AppComponent</text>
</g>
<!-- AppModule -->
<g id="node5" class="node">
<title>AppModule</title>
<polygon fill="#8dd3c7" stroke="black" points="635.66,-149.8 632.66,-153.8 611.66,-153.8 608.66,-149.8 552.34,-149.8 552.34,-113.8 635.66,-113.8 635.66,-149.8"/>
<text text-anchor="middle" x="594" y="-127.6" font-family="Times,serif" font-size="14.00">AppModule</text>
</g>
<!-- AppComponent&#45;&gt;AppModule -->
<g id="edge1" class="edge">
<title>AppComponent&#45;&gt;AppModule</title>
<path fill="none" stroke="black" d="M1071,-85.09C1071,-107.01 1071,-140.8 1071,-140.8 1071,-140.8 645.91,-140.8 645.91,-140.8"/>
<polygon fill="black" stroke="black" points="645.91,-137.3 635.91,-140.8 645.91,-144.3 645.91,-137.3"/>
</g>
<!-- ProductAddComponent -->
<g id="node2" class="node">
<title>ProductAddComponent</title>
<polygon fill="#ffffb3" stroke="black" points="1000.49,-84.8 851.51,-84.8 851.51,-48.8 1000.49,-48.8 1000.49,-84.8"/>
<text text-anchor="middle" x="926" y="-62.6" font-family="Times,serif" font-size="14.00">ProductAddComponent</text>
</g>
<!-- ProductAddComponent&#45;&gt;AppModule -->
<g id="edge2" class="edge">
<title>ProductAddComponent&#45;&gt;AppModule</title>
<path fill="none" stroke="black" d="M926,-84.91C926,-104.14 926,-131.8 926,-131.8 926,-131.8 645.71,-131.8 645.71,-131.8"/>
<polygon fill="black" stroke="black" points="645.71,-128.3 635.71,-131.8 645.71,-135.3 645.71,-128.3"/>
</g>
<!-- ProductEditComponent -->
<g id="node3" class="node">
<title>ProductEditComponent</title>
<polygon fill="#ffffb3" stroke="black" points="833.21,-84.8 684.79,-84.8 684.79,-48.8 833.21,-48.8 833.21,-84.8"/>
<text text-anchor="middle" x="759" y="-62.6" font-family="Times,serif" font-size="14.00">ProductEditComponent</text>
</g>
<!-- ProductEditComponent&#45;&gt;AppModule -->
<g id="edge3" class="edge">
<title>ProductEditComponent&#45;&gt;AppModule</title>
<path fill="none" stroke="black" d="M759,-84.83C759,-101.2 759,-122.8 759,-122.8 759,-122.8 646.06,-122.8 646.06,-122.8"/>
<polygon fill="black" stroke="black" points="646.06,-119.3 636.06,-122.8 646.06,-126.3 646.06,-119.3"/>
</g>
<!-- ProductGetComponent -->
<g id="node4" class="node">
<title>ProductGetComponent</title>
<polygon fill="#ffffb3" stroke="black" points="666.6,-84.8 521.4,-84.8 521.4,-48.8 666.6,-48.8 666.6,-84.8"/>
<text text-anchor="middle" x="594" y="-62.6" font-family="Times,serif" font-size="14.00">ProductGetComponent</text>
</g>
<!-- ProductGetComponent&#45;&gt;AppModule -->
<g id="edge4" class="edge">
<title>ProductGetComponent&#45;&gt;AppModule</title>
<path fill="none" stroke="black" d="M594,-84.91C594,-84.91 594,-103.79 594,-103.79"/>
<polygon fill="black" stroke="black" points="590.5,-103.79 594,-113.79 597.5,-103.79 590.5,-103.79"/>
</g>
<!-- AppComponent  -->
<g id="node8" class="node">
<title>AppComponent </title>
<polygon fill="#80b1d3" stroke="black" points="648.44,-214.8 539.56,-214.8 539.56,-178.8 648.44,-178.8 648.44,-214.8"/>
<text text-anchor="middle" x="594" y="-192.6" font-family="Times,serif" font-size="14.00">AppComponent </text>
</g>
<!-- AppModule&#45;&gt;AppComponent  -->
<g id="edge7" class="edge">
<title>AppModule&#45;&gt;AppComponent </title>
<path fill="none" stroke="black" stroke-dasharray="1,5" d="M594,-149.91C594,-149.91 594,-168.79 594,-168.79"/>
<polygon fill="black" stroke="black" points="590.5,-168.79 594,-178.79 597.5,-168.79 590.5,-168.79"/>
</g>
<!-- AppRoutingModule -->
<g id="node6" class="node">
<title>AppRoutingModule</title>
<polygon fill="#8dd3c7" stroke="black" points="269.28,-84.8 266.28,-88.8 245.28,-88.8 242.28,-84.8 140.72,-84.8 140.72,-48.8 269.28,-48.8 269.28,-84.8"/>
<text text-anchor="middle" x="205" y="-62.6" font-family="Times,serif" font-size="14.00">AppRoutingModule</text>
</g>
<!-- AppRoutingModule&#45;&gt;AppModule -->
<g id="edge5" class="edge">
<title>AppRoutingModule&#45;&gt;AppModule</title>
<path fill="none" stroke="black" d="M205,-84.91C205,-104.14 205,-131.8 205,-131.8 205,-131.8 542,-131.8 542,-131.8"/>
<polygon fill="black" stroke="black" points="542,-135.3 552,-131.8 542,-128.3 542,-135.3"/>
</g>
<!-- SharedModule -->
<g id="node7" class="node">
<title>SharedModule</title>
<polygon fill="#8dd3c7" stroke="black" points="122.43,-84.8 119.43,-88.8 98.43,-88.8 95.43,-84.8 23.57,-84.8 23.57,-48.8 122.43,-48.8 122.43,-84.8"/>
<text text-anchor="middle" x="73" y="-62.6" font-family="Times,serif" font-size="14.00">SharedModule</text>
</g>
<!-- SharedModule&#45;&gt;AppModule -->
<g id="edge6" class="edge">
<title>SharedModule&#45;&gt;AppModule</title>
<path fill="none" stroke="black" d="M73,-85.09C73,-107.01 73,-140.8 73,-140.8 73,-140.8 542.25,-140.8 542.25,-140.8"/>
<polygon fill="black" stroke="black" points="542.25,-144.3 552.25,-140.8 542.25,-137.3 542.25,-144.3"/>
</g>
<!-- LoadingSpinnerService -->
<g id="node9" class="node">
<title>LoadingSpinnerService</title>
<ellipse fill="#fdb462" stroke="black" cx="395" cy="-66.8" rx="102.43" ry="18"/>
<text text-anchor="middle" x="395" y="-62.6" font-family="Times,serif" font-size="14.00">LoadingSpinnerService</text>
</g>
<!-- LoadingSpinnerService&#45;&gt;AppModule -->
<g id="edge8" class="edge">
<title>LoadingSpinnerService&#45;&gt;AppModule</title>
<path fill="none" stroke="black" d="M395,-84.83C395,-101.2 395,-122.8 395,-122.8 395,-122.8 542.28,-122.8 542.28,-122.8"/>
<polygon fill="black" stroke="black" points="542.28,-126.3 552.28,-122.8 542.28,-119.3 542.28,-126.3"/>
</g>
</g>
</svg>
