<?xml version="1.0" encoding="UTF-8" standalone="no"?>
<!DOCTYPE svg PUBLIC "-//W3C//DTD SVG 1.1//EN"
 "http://www.w3.org/Graphics/SVG/1.1/DTD/svg11.dtd">
<!-- Generated by graphviz version 3.0.0 (20220226.1711)
 -->
<!-- Title: dependencies Pages: 1 -->
<svg width="1358pt" height="323pt"
 viewBox="0.00 0.00 1358.00 322.80" xmlns="http://www.w3.org/2000/svg" xmlns:xlink="http://www.w3.org/1999/xlink">
<g id="graph0" class="graph" transform="scale(1 1) rotate(0) translate(4 318.8)">
<title>dependencies</title>
<polygon fill="white" stroke="transparent" points="-4,4 -4,-318.8 1354,-318.8 1354,4 -4,4"/>
<text text-anchor="middle" x="675" y="-8.2" font-family="sans-serif" font-size="14.00">dependencies</text>
<g id="clust1" class="cluster">
<title>cluster_AppModule</title>
<polygon fill="none" stroke="black" stroke-dasharray="1,5" points="210,-108.8 210,-306.8 1342,-306.8 1342,-108.8 210,-108.8"/>
</g>
<g id="clust2" class="cluster">
<title>cluster_AppModule_declarations</title>
<polygon fill="none" stroke="black" points="715,-116.8 715,-168.8 1334,-168.8 1334,-116.8 715,-116.8"/>
</g>
<g id="clust7" class="cluster">
<title>cluster_AppModule_imports</title>
<polygon fill="none" stroke="black" points="446,-116.8 446,-168.8 707,-168.8 707,-116.8 446,-116.8"/>
</g>
<g id="clust9" class="cluster">
<title>cluster_AppModule_bootstrap</title>
<polygon fill="none" stroke="black" points="734,-246.8 734,-298.8 858,-298.8 858,-246.8 734,-246.8"/>
</g>
<g id="clust10" class="cluster">
<title>cluster_AppModule_providers</title>
<polygon fill="none" stroke="black" points="218,-116.8 218,-168.8 438,-168.8 438,-116.8 218,-116.8"/>
</g>
<g id="clust23" class="cluster">
<title>cluster_SharedModule</title>
<polygon fill="none" stroke="black" stroke-dasharray="1,5" points="8,-32.8 8,-100.8 987,-100.8 987,-32.8 8,-32.8"/>
</g>
<g id="clust24" class="cluster">
<title>cluster_SharedModule_declarations</title>
<polygon fill="none" stroke="black" points="562,-40.8 562,-92.8 979,-92.8 979,-40.8 562,-40.8"/>
</g>
<g id="clust28" class="cluster">
<title>cluster_SharedModule_imports</title>
<polygon fill="none" stroke="black" points="452,-40.8 452,-92.8 554,-92.8 554,-40.8 452,-40.8"/>
</g>
<g id="clust29" class="cluster">
<title>cluster_SharedModule_exports</title>
<polygon fill="none" stroke="black" points="16,-40.8 16,-92.8 444,-92.8 444,-40.8 16,-40.8"/>
</g>
<!-- AppComponent -->
<g id="node1" class="node">
<title>AppComponent</title>
<polygon fill="#ffffb3" stroke="black" points="1325.94,-160.8 1220.06,-160.8 1220.06,-124.8 1325.94,-124.8 1325.94,-160.8"/>
<text text-anchor="middle" x="1273" y="-138.6" font-family="Times,serif" font-size="14.00">AppComponent</text>
</g>
<!-- AppModule -->
<g id="node5" class="node">
<title>AppModule</title>
<polygon fill="#8dd3c7" stroke="black" points="837.66,-225.8 834.66,-229.8 813.66,-229.8 810.66,-225.8 754.34,-225.8 754.34,-189.8 837.66,-189.8 837.66,-225.8"/>
<text text-anchor="middle" x="796" y="-203.6" font-family="Times,serif" font-size="14.00">AppModule</text>
</g>
<!-- AppComponent&#45;&gt;AppModule -->
<g id="edge1" class="edge">
<title>AppComponent&#45;&gt;AppModule</title>
<path fill="none" stroke="black" d="M1273,-161.09C1273,-183.01 1273,-216.8 1273,-216.8 1273,-216.8 847.91,-216.8 847.91,-216.8"/>
<polygon fill="black" stroke="black" points="847.91,-213.3 837.91,-216.8 847.91,-220.3 847.91,-213.3"/>
</g>
<!-- ProductAddComponent -->
<g id="node2" class="node">
<title>ProductAddComponent</title>
<polygon fill="#ffffb3" stroke="black" points="1202.49,-160.8 1053.51,-160.8 1053.51,-124.8 1202.49,-124.8 1202.49,-160.8"/>
<text text-anchor="middle" x="1128" y="-138.6" font-family="Times,serif" font-size="14.00">ProductAddComponent</text>
</g>
<!-- ProductAddComponent&#45;&gt;AppModule -->
<g id="edge2" class="edge">
<title>ProductAddComponent&#45;&gt;AppModule</title>
<path fill="none" stroke="black" d="M1128,-160.91C1128,-180.14 1128,-207.8 1128,-207.8 1128,-207.8 847.71,-207.8 847.71,-207.8"/>
<polygon fill="black" stroke="black" points="847.71,-204.3 837.71,-207.8 847.71,-211.3 847.71,-204.3"/>
</g>
<!-- ProductEditComponent -->
<g id="node3" class="node">
<title>ProductEditComponent</title>
<polygon fill="#ffffb3" stroke="black" points="1035.21,-160.8 886.79,-160.8 886.79,-124.8 1035.21,-124.8 1035.21,-160.8"/>
<text text-anchor="middle" x="961" y="-138.6" font-family="Times,serif" font-size="14.00">ProductEditComponent</text>
</g>
<!-- ProductEditComponent&#45;&gt;AppModule -->
<g id="edge3" class="edge">
<title>ProductEditComponent&#45;&gt;AppModule</title>
<path fill="none" stroke="black" d="M961,-160.83C961,-177.2 961,-198.8 961,-198.8 961,-198.8 848.06,-198.8 848.06,-198.8"/>
<polygon fill="black" stroke="black" points="848.06,-195.3 838.06,-198.8 848.06,-202.3 848.06,-195.3"/>
</g>
<!-- ProductGetComponent -->
<g id="node4" class="node">
<title>ProductGetComponent</title>
<polygon fill="#ffffb3" stroke="black" points="868.6,-160.8 723.4,-160.8 723.4,-124.8 868.6,-124.8 868.6,-160.8"/>
<text text-anchor="middle" x="796" y="-138.6" font-family="Times,serif" font-size="14.00">ProductGetComponent</text>
</g>
<!-- ProductGetComponent&#45;&gt;AppModule -->
<g id="edge4" class="edge">
<title>ProductGetComponent&#45;&gt;AppModule</title>
<path fill="none" stroke="black" d="M796,-160.91C796,-160.91 796,-179.79 796,-179.79"/>
<polygon fill="black" stroke="black" points="792.5,-179.79 796,-189.79 799.5,-179.79 792.5,-179.79"/>
</g>
<!-- AppComponent  -->
<g id="node8" class="node">
<title>AppComponent </title>
<polygon fill="#80b1d3" stroke="black" points="850.44,-290.8 741.56,-290.8 741.56,-254.8 850.44,-254.8 850.44,-290.8"/>
<text text-anchor="middle" x="796" y="-268.6" font-family="Times,serif" font-size="14.00">AppComponent </text>
</g>
<!-- AppModule&#45;&gt;AppComponent  -->
<g id="edge7" class="edge">
<title>AppModule&#45;&gt;AppComponent </title>
<path fill="none" stroke="black" stroke-dasharray="1,5" d="M796,-225.91C796,-225.91 796,-244.79 796,-244.79"/>
<polygon fill="black" stroke="black" points="792.5,-244.79 796,-254.79 799.5,-244.79 792.5,-244.79"/>
</g>
<!-- AppRoutingModule -->
<g id="node6" class="node">
<title>AppRoutingModule</title>
<polygon fill="#8dd3c7" stroke="black" points="699.28,-160.8 696.28,-164.8 675.28,-164.8 672.28,-160.8 570.72,-160.8 570.72,-124.8 699.28,-124.8 699.28,-160.8"/>
<text text-anchor="middle" x="635" y="-138.6" font-family="Times,serif" font-size="14.00">AppRoutingModule</text>
</g>
<!-- AppRoutingModule&#45;&gt;AppModule -->
<g id="edge5" class="edge">
<title>AppRoutingModule&#45;&gt;AppModule</title>
<path fill="none" stroke="black" d="M635,-160.83C635,-177.2 635,-198.8 635,-198.8 635,-198.8 744.12,-198.8 744.12,-198.8"/>
<polygon fill="black" stroke="black" points="744.12,-202.3 754.12,-198.8 744.12,-195.3 744.12,-202.3"/>
</g>
<!-- SharedModule -->
<g id="node7" class="node">
<title>SharedModule</title>
<polygon fill="#8dd3c7" stroke="black" points="552.43,-160.8 549.43,-164.8 528.43,-164.8 525.43,-160.8 453.57,-160.8 453.57,-124.8 552.43,-124.8 552.43,-160.8"/>
<text text-anchor="middle" x="503" y="-138.6" font-family="Times,serif" font-size="14.00">SharedModule</text>
</g>
<!-- SharedModule&#45;&gt;AppModule -->
<g id="edge6" class="edge">
<title>SharedModule&#45;&gt;AppModule</title>
<path fill="none" stroke="black" d="M503,-160.91C503,-180.14 503,-207.8 503,-207.8 503,-207.8 744.33,-207.8 744.33,-207.8"/>
<polygon fill="black" stroke="black" points="744.33,-211.3 754.33,-207.8 744.33,-204.3 744.33,-211.3"/>
</g>
<!-- AlertToastDirective  -->
<g id="node14" class="node">
<title>AlertToastDirective </title>
<polygon fill="#fb8072" stroke="black" points="435.95,-84.8 304.05,-84.8 304.05,-48.8 435.95,-48.8 435.95,-84.8"/>
<text text-anchor="middle" x="370" y="-62.6" font-family="Times,serif" font-size="14.00">AlertToastDirective </text>
</g>
<!-- SharedModule&#45;&gt;AlertToastDirective  -->
<g id="edge13" class="edge">
<title>SharedModule&#45;&gt;AlertToastDirective </title>
<path fill="none" stroke="black" stroke-dasharray="5,2" d="M453.35,-142.8C448.17,-142.8 444.76,-142.8 444.76,-142.8 444.76,-142.8 444.76,-66.8 444.76,-66.8 444.76,-66.8 443.87,-66.8 443.87,-66.8"/>
<polygon fill="black" stroke="black" points="445.89,-63.3 435.89,-66.8 445.89,-70.3 445.89,-63.3"/>
</g>
<!-- SpinnerComponent  -->
<g id="node15" class="node">
<title>SpinnerComponent </title>
<polygon fill="#fb8072" stroke="black" points="286.38,-84.8 157.62,-84.8 157.62,-48.8 286.38,-48.8 286.38,-84.8"/>
<text text-anchor="middle" x="222" y="-62.6" font-family="Times,serif" font-size="14.00">SpinnerComponent </text>
</g>
<!-- SharedModule&#45;&gt;SpinnerComponent  -->
<g id="edge14" class="edge">
<title>SharedModule&#45;&gt;SpinnerComponent </title>
<path fill="none" stroke="black" stroke-dasharray="5,2" d="M488.54,-124.75C488.54,-110.43 488.54,-92.8 488.54,-92.8 488.54,-92.8 255.99,-92.8 255.99,-92.8 255.99,-92.8 255.99,-92.01 255.99,-92.01"/>
<polygon fill="black" stroke="black" points="259.49,-94.86 255.99,-84.86 252.49,-94.86 259.49,-94.86"/>
</g>
<!-- ToastComponent  -->
<g id="node16" class="node">
<title>ToastComponent </title>
<polygon fill="#fb8072" stroke="black" points="139.93,-84.8 24.07,-84.8 24.07,-48.8 139.93,-48.8 139.93,-84.8"/>
<text text-anchor="middle" x="82" y="-62.6" font-family="Times,serif" font-size="14.00">ToastComponent </text>
</g>
<!-- SharedModule&#45;&gt;ToastComponent  -->
<g id="edge15" class="edge">
<title>SharedModule&#45;&gt;ToastComponent </title>
<path fill="none" stroke="black" stroke-dasharray="5,2" d="M474.08,-124.74C474.08,-113.36 474.08,-100.8 474.08,-100.8 474.08,-100.8 82,-100.8 82,-100.8 82,-100.8 82,-94.99 82,-94.99"/>
<polygon fill="black" stroke="black" points="85.5,-94.99 82,-84.99 78.5,-94.99 85.5,-94.99"/>
</g>
<!-- LoadingSpinnerService -->
<g id="node9" class="node">
<title>LoadingSpinnerService</title>
<ellipse fill="#fdb462" stroke="black" cx="328" cy="-142.8" rx="102.43" ry="18"/>
<text text-anchor="middle" x="328" y="-138.6" font-family="Times,serif" font-size="14.00">LoadingSpinnerService</text>
</g>
<!-- LoadingSpinnerService&#45;&gt;AppModule -->
<g id="edge8" class="edge">
<title>LoadingSpinnerService&#45;&gt;AppModule</title>
<path fill="none" stroke="black" d="M328,-161.09C328,-183.01 328,-216.8 328,-216.8 328,-216.8 744.06,-216.8 744.06,-216.8"/>
<polygon fill="black" stroke="black" points="744.06,-220.3 754.06,-216.8 744.06,-213.3 744.06,-220.3"/>
</g>
<!-- AlertToastDirective -->
<g id="node10" class="node">
<title>AlertToastDirective</title>
<polygon fill="#ffffb3" stroke="black" points="970.95,-84.8 843.05,-84.8 843.05,-48.8 970.95,-48.8 970.95,-84.8"/>
<text text-anchor="middle" x="907" y="-62.6" font-family="Times,serif" font-size="14.00">AlertToastDirective</text>
</g>
<!-- AlertToastDirective&#45;&gt;SharedModule -->
<g id="edge9" class="edge">
<title>AlertToastDirective&#45;&gt;SharedModule</title>
<path fill="none" stroke="black" d="M855.79,-84.85C855.79,-99.17 855.79,-116.8 855.79,-116.8 855.79,-116.8 531.92,-116.8 531.92,-116.8 531.92,-116.8 531.92,-117.59 531.92,-117.59"/>
<polygon fill="black" stroke="black" points="528.42,-114.74 531.92,-124.74 535.42,-114.74 528.42,-114.74"/>
</g>
<!-- SpinnerComponent -->
<g id="node11" class="node">
<title>SpinnerComponent</title>
<polygon fill="#ffffb3" stroke="black" points="825.38,-84.8 700.62,-84.8 700.62,-48.8 825.38,-48.8 825.38,-84.8"/>
<text text-anchor="middle" x="763" y="-62.6" font-family="Times,serif" font-size="14.00">SpinnerComponent</text>
</g>
<!-- SpinnerComponent&#45;&gt;SharedModule -->
<g id="edge10" class="edge">
<title>SpinnerComponent&#45;&gt;SharedModule</title>
<path fill="none" stroke="black" d="M712.01,-84.86C712.01,-96.24 712.01,-108.8 712.01,-108.8 712.01,-108.8 517.46,-108.8 517.46,-108.8 517.46,-108.8 517.46,-114.61 517.46,-114.61"/>
<polygon fill="black" stroke="black" points="513.96,-114.61 517.46,-124.61 520.96,-114.61 513.96,-114.61"/>
</g>
<!-- ToastComponent -->
<g id="node12" class="node">
<title>ToastComponent</title>
<polygon fill="#ffffb3" stroke="black" points="682.44,-84.8 569.56,-84.8 569.56,-48.8 682.44,-48.8 682.44,-84.8"/>
<text text-anchor="middle" x="626" y="-62.6" font-family="Times,serif" font-size="14.00">ToastComponent</text>
</g>
<!-- ToastComponent&#45;&gt;SharedModule -->
<g id="edge11" class="edge">
<title>ToastComponent&#45;&gt;SharedModule</title>
<path fill="none" stroke="black" d="M569.76,-66.8C564.45,-66.8 561,-66.8 561,-66.8 561,-66.8 561,-142.8 561,-142.8 561,-142.8 560.14,-142.8 560.14,-142.8"/>
<polygon fill="black" stroke="black" points="562.44,-139.3 552.44,-142.8 562.44,-146.3 562.44,-139.3"/>
</g>
<!-- CoreModule -->
<g id="node13" class="node">
<title>CoreModule</title>
<polygon fill="#8dd3c7" stroke="black" points="546.27,-84.8 543.27,-88.8 522.27,-88.8 519.27,-84.8 459.73,-84.8 459.73,-48.8 546.27,-48.8 546.27,-84.8"/>
<text text-anchor="middle" x="503" y="-62.6" font-family="Times,serif" font-size="14.00">CoreModule</text>
</g>
<!-- CoreModule&#45;&gt;SharedModule -->
<g id="edge12" class="edge">
<title>CoreModule&#45;&gt;SharedModule</title>
<path fill="none" stroke="black" d="M503,-84.81C503,-84.81 503,-114.65 503,-114.65"/>
<polygon fill="black" stroke="black" points="499.5,-114.65 503,-124.65 506.5,-114.65 499.5,-114.65"/>
</g>
</g>
</svg>
